<svg width="307" height="96" viewBox="0 0 307 96" fill="none" xmlns="http://www.w3.org/2000/svg">
<path d="M20.8 67.296C22.9333 67.296 24.8107 66.72 26.432 65.568C28.096 64.416 28.928 62.688 28.928 60.384C28.928 58.0373 28.032 56.2453 26.24 55.008C24.4907 53.7707 21.9733 52.704 18.688 51.808C15.4453 50.8693 13.0773 50.0587 11.584 49.376C10.1333 48.6933 8.74667 47.7973 7.424 46.688C4.77867 44.4693 3.456 41.0347 3.456 36.384C3.456 32.5867 4.8 29.3227 7.488 26.592C10.2187 23.8613 13.9307 22.496 18.624 22.496C20.8853 22.496 23.232 22.8373 25.664 23.52C28.1387 24.16 29.6747 24.48 30.272 24.48C30.8693 24.48 31.4027 24.0533 31.872 23.2H32.576L33.024 36.128H32C29.952 32.416 27.7973 29.4507 25.536 27.232C23.3173 24.9707 20.8853 23.84 18.24 23.84C15.6373 23.84 13.6107 24.4587 12.16 25.696C10.7093 26.8907 9.984 28.512 9.984 30.56C9.984 32.5653 10.8373 34.1227 12.544 35.232C14.2933 36.2987 16.4267 37.1733 18.944 37.856C21.4613 38.5387 23.104 39.008 23.872 39.264C24.6827 39.52 25.664 39.8827 26.816 40.352C28.0107 40.7787 28.9707 41.248 29.696 41.76C30.464 42.2293 31.2533 42.848 32.064 43.616C32.9173 44.3413 33.5787 45.152 34.048 46.048C35.2 48.096 35.776 50.528 35.776 53.344C35.776 57.952 34.3253 61.664 31.424 64.48C28.5653 67.2533 24.7893 68.64 20.096 68.64C17.664 68.64 14.8693 68.32 11.712 67.68C8.59733 67.04 6.86933 66.72 6.528 66.72C5.93067 66.72 5.35467 67.36 4.8 68.64H3.904L3.264 53.408H4.352C6.22933 57.12 8.61867 60.3627 11.52 63.136C14.464 65.9093 17.5573 67.296 20.8 67.296ZM55.847 68.64C50.343 68.64 46.2043 67.232 43.431 64.416C40.7003 61.5573 39.335 57.6107 39.335 52.576C39.335 47.4987 40.871 43.616 43.943 40.928C47.0577 38.24 51.0043 36.896 55.783 36.896C65.4683 36.896 70.119 41.76 69.735 51.488H51.687V53.984C51.687 58.1653 52.2203 61.3227 53.287 63.456C54.3537 65.5893 56.2097 66.656 58.855 66.656C63.8043 66.656 67.047 64.0107 68.583 58.72L69.735 58.912C68.9243 61.984 67.4523 64.3733 65.319 66.08C63.2283 67.7867 60.071 68.64 55.847 68.64ZM51.751 50.208H58.343V47.072C58.343 43.616 58.1297 41.2693 57.703 40.032C57.319 38.752 56.5083 38.112 55.271 38.112C54.0763 38.112 53.1803 38.7947 52.583 40.16C52.0283 41.4827 51.751 43.7867 51.751 47.072V50.208ZM72.015 37.536H87.439V43.424C88.847 39.072 91.9403 36.896 96.719 36.896C101.54 36.896 104.463 39.2 105.487 43.808C106.98 39.2 110.116 36.896 114.895 36.896C121.167 36.896 124.303 40.4587 124.303 47.584V66.848H127.887V68H110.159V66.848H112.399V46.048C112.399 42.8053 112.122 40.9067 111.567 40.352C111.311 40.096 110.97 39.968 110.543 39.968C109.306 39.968 108.218 40.8 107.279 42.464C106.34 44.128 105.871 46.24 105.871 48.8V66.848H108.175V68H91.727V66.848H93.967V46.048C93.967 42.8053 93.6897 40.9067 93.135 40.352C92.879 40.096 92.5377 39.968 92.111 39.968C90.9163 39.968 89.8283 40.8853 88.847 42.72C87.9083 44.512 87.439 46.6667 87.439 49.184V66.848H89.743V68H72.015V66.848H75.535V38.688H72.015V37.536ZM144.188 52.96H146.044V48.032C146.044 43.9787 145.809 41.2693 145.34 39.904C144.913 38.496 144.06 37.792 142.78 37.792C142.012 37.792 141.308 38.0053 140.668 38.432C140.07 38.816 139.772 39.3707 139.772 40.096C139.772 40.7787 139.9 41.4827 140.156 42.208H141.756C142.097 43.104 142.268 44.192 142.268 45.472C142.268 46.7093 141.734 47.7973 140.668 48.736C139.601 49.632 138.257 50.08 136.635 50.08C132.966 50.08 131.132 48.3093 131.132 44.768C131.132 39.52 135.59 36.896 144.508 36.896C149.585 36.896 153.084 37.7707 155.004 39.52C156.966 41.2267 157.948 44.384 157.948 48.992V61.984C157.948 64.2027 158.566 65.312 159.804 65.312C161.254 65.312 162.108 63.1147 162.364 58.72L163.324 58.784C163.153 62.5387 162.449 65.12 161.212 66.528C159.974 67.936 157.948 68.64 155.132 68.64C150.012 68.64 147.068 67.0613 146.3 63.904C145.745 65.5253 144.913 66.72 143.804 67.488C142.694 68.256 141.073 68.64 138.94 68.64C132.625 68.64 129.468 66.0587 129.468 60.896C129.468 57.8667 130.662 55.7973 133.052 54.688C135.484 53.536 139.196 52.96 144.188 52.96ZM141.628 60.832C141.628 63.0507 141.734 64.48 141.948 65.12C142.204 65.76 142.652 66.08 143.292 66.08C143.974 66.08 144.593 65.5467 145.148 64.48C145.745 63.3707 146.044 61.856 146.044 59.936V53.984H145.596C142.95 53.984 141.628 55.9253 141.628 59.808V60.832ZM164.081 37.536H179.505V43.424C180.187 41.4613 181.233 39.8827 182.641 38.688C184.049 37.4933 186.182 36.896 189.041 36.896C195.654 36.896 198.961 40.4587 198.961 47.584V66.848H202.545V68H184.433V66.848H187.057V46.048C187.057 43.488 186.886 41.8453 186.545 41.12C186.203 40.352 185.585 39.968 184.689 39.968C183.323 39.968 182.107 40.864 181.041 42.656C180.017 44.448 179.505 46.624 179.505 49.184V66.848H182.257V68H164.081V66.848H167.601V38.688H164.081V37.536ZM206.278 58.848V38.688H202.758V37.536H206.278V29.28L218.182 26.336V37.536H226.502V38.688H218.182V60.256C218.182 62.2613 218.374 63.7333 218.758 64.672C219.184 65.6107 220.038 66.08 221.318 66.08C222.598 66.08 223.707 65.44 224.646 64.16C225.627 62.88 226.267 61.1307 226.566 58.912L227.654 59.04C227.312 61.984 226.374 64.3307 224.838 66.08C223.302 67.7867 220.763 68.64 217.222 68.64C213.68 68.64 210.971 67.936 209.094 66.528C207.216 65.12 206.278 62.56 206.278 58.848ZM237.673 33.12C235.412 33.12 233.79 32.544 232.809 31.392C231.87 30.24 231.401 28.8107 231.401 27.104C231.401 25.3973 231.913 23.9893 232.937 22.88C234.004 21.7707 235.604 21.216 237.737 21.216C239.87 21.216 241.492 21.728 242.601 22.752C243.71 23.7333 244.265 25.1627 244.265 27.04C244.265 28.8747 243.732 30.3467 242.665 31.456C241.598 32.5653 239.934 33.12 237.673 33.12ZM228.009 37.536H243.689V66.848H247.273V68H228.265V66.848H231.785V38.688H228.009V37.536ZM266.498 38.048C264.62 38.048 263.276 39.072 262.466 41.12C261.655 43.168 261.25 46.56 261.25 51.296V54.624C261.25 58.848 261.719 61.8773 262.658 63.712C263.596 65.5467 265.324 66.464 267.842 66.464C270.359 66.464 272.364 65.6107 273.858 63.904C275.351 62.1973 276.311 60.256 276.738 58.08L277.89 58.208C277.079 61.8773 275.586 64.5227 273.41 66.144C271.191 67.808 268.14 68.64 264.258 68.64C259.308 68.64 255.511 67.3173 252.866 64.672C250.22 61.984 248.898 58.08 248.898 52.96C248.898 47.7973 250.391 43.8293 253.378 41.056C256.407 38.2827 260.61 36.896 265.986 36.896C269.783 36.896 272.684 37.6427 274.69 39.136C276.695 40.5867 277.698 42.4213 277.698 44.64C277.698 46.8587 277.207 48.48 276.226 49.504C275.287 50.528 273.964 51.04 272.258 51.04C270.594 51.04 269.25 50.592 268.226 49.696C267.202 48.8 266.69 47.4773 266.69 45.728C266.69 44.96 266.796 44.192 267.01 43.424H269.122C269.42 42.5707 269.57 41.8027 269.57 41.12C269.57 39.072 268.546 38.048 266.498 38.048ZM280.987 68.64V57.184H281.755C282.864 60.896 284.358 63.4987 286.235 64.992C288.112 66.4853 290.459 67.232 293.275 67.232C297.627 67.232 299.803 65.8453 299.803 63.072C299.803 61.8773 299.27 60.9813 298.203 60.384C296.539 59.4453 294.406 58.72 291.803 58.208C288.902 57.44 286.47 56.416 284.507 55.136C282.16 53.6 280.987 51.168 280.987 47.84C280.987 44.512 282.011 41.8667 284.059 39.904C286.107 37.8987 288.838 36.896 292.251 36.896C294.342 36.896 296.496 37.3867 298.715 38.368C299.526 38.7093 300.144 38.88 300.571 38.88C300.998 38.88 301.36 38.7307 301.659 38.432C301.958 38.1333 302.32 37.5787 302.747 36.768H303.451V46.56H302.683C300.507 41.0133 297.136 38.24 292.571 38.24C290.566 38.24 289.072 38.6027 288.091 39.328C287.11 40.0107 286.619 40.8853 286.619 41.952C286.619 42.592 286.768 43.104 287.067 43.488C287.366 43.8293 287.6 44.0853 287.771 44.256C287.942 44.4267 288.219 44.6187 288.603 44.832C288.987 45.0027 289.307 45.152 289.563 45.28C289.819 45.3653 290.203 45.4933 290.715 45.664C291.27 45.8347 291.675 45.9413 291.931 45.984C294.832 46.7093 296.923 47.3493 298.203 47.904C299.483 48.416 300.699 49.056 301.851 49.824C304.198 51.4453 305.371 54.0693 305.371 57.696C305.371 61.28 304.304 64.0107 302.171 65.888C300.038 67.7227 297.115 68.64 293.403 68.64C290.758 68.64 288.198 68.0213 285.723 66.784C285.211 66.4427 284.806 66.272 284.507 66.272C283.568 66.272 282.651 67.0613 281.755 68.64H280.987Z" fill="black"/>
<path d="M0 88.5C0 84.3579 3.35786 81 7.5 81H153.5H299.5C303.642 81 307 84.3579 307 88.5V88.5C307 92.6421 303.642 96 299.5 96H7.5C3.35787 96 0 92.6421 0 88.5V88.5Z" fill="#00862E" fill-opacity="0.4"/>
</svg>
